<?xml version="1.0"?>
<svg xmlns="http://www.w3.org/2000/svg" viewBox="0 0 512 512" width="512" height="512"><g id="Out_line" data-name="Out line"><path d="M60,224H72v56H88V224h16V208H88V173.82458a97.66341,97.66341,0,0,0,20.10693,8.44788C128.49268,188.54541,155.44531,192,184,192s55.50732-3.45459,75.89307-9.72754A97.66341,97.66341,0,0,0,280,173.82458V232h16v-8h12a28,28,0,0,0,0-56H296V152c0-8.11865-5.44922-19.69336-31.40918-28.73291-15.089-5.25378-34.91309-8.88367-56.6123-10.42432.00976-.28027.02148-.56018.02148-.84277a24,24,0,0,0-48,0c0,.28259.01172.5625.02148.84277-21.69921,1.54065-41.52331,5.17054-56.6123,10.42432C77.44922,132.30664,72,143.88135,72,152v16H60a28,28,0,0,0,0,56Zm248-40a12,12,0,0,1,0,24H296V184ZM167.64465,129.54175a23.93887,23.93887,0,0,0,32.7107,0c9.45642,1.89868,14.20263,4.99084,15.43664,6.46948C213.71143,138.63281,202.75537,144,184,144s-29.71143-5.36719-31.792-7.98877C153.442,134.53259,158.18823,131.44043,167.64465,129.54175ZM184,104a8,8,0,1,1-8,8A8.00917,8.00917,0,0,1,184,104Zm-75.32959,34.37744a169.13416,169.13416,0,0,1,27.98926-6.775A14.95123,14.95123,0,0,0,136,136c0,4.49854,2.17529,12.916,16.74561,18.74316C161.22217,158.13281,172.32178,160,184,160s22.77783-1.86719,31.25439-5.25684C229.82471,148.916,232,140.49854,232,136a14.95123,14.95123,0,0,0-.65967-4.39758,169.13416,169.13416,0,0,1,27.98926,6.775C274.49512,143.6582,280,149.41748,280,152c0,2.043-4.45752,8.71631-24.813,14.98C236.28467,172.79688,211.00342,176,184,176s-52.28467-3.20312-71.187-9.02C92.45752,160.71631,88,154.043,88,152,88,149.41748,93.50488,143.6582,108.67041,138.37744ZM60,184H72v24H60a12,12,0,0,1,0-24Z"/><path d="M149.6167,386.167a95.3998,95.3998,0,0,0,9.42383,3.979C176.51562,396.50049,199.58545,400,224,400s47.48438-3.49951,64.95947-9.854a95.30691,95.30691,0,0,0,9.471-4.00232c-.4834,1.07556-.9906,2.14367-1.53638,3.19958l14.21289,7.34766A80.22778,80.22778,0,0,0,320,360c0-8.603-5.38525-20.81689-31.04053-30.146C271.48438,323.49951,248.41455,320,224,320s-47.48438,3.49951-64.95947,9.854c-3.1377,1.14087-5.96778,2.32544-8.52637,3.5409l-32.79492-21.86316A139.66557,139.66557,0,0,0,40,288a24,24,0,0,0,0,48,97.38166,97.38166,0,0,1,54.188,16.40674l35.42627,23.61743A80.13557,80.13557,0,0,0,208,440V424A64.0758,64.0758,0,0,1,149.6167,386.167Zm14.8916-41.27637C180.27539,339.15771,201.40332,336,224,336s43.72461,3.15771,59.4917,8.89062C297.65869,350.04248,304,356.19141,304,360s-6.34131,9.95752-20.5083,15.10938C267.72461,380.84229,246.59668,384,224,384s-43.72461-3.15771-59.4917-8.89062C150.34131,369.95752,144,363.80859,144,360S150.34131,350.04248,164.5083,344.89062ZM40,320a8,8,0,0,1,0-16,123.72,123.72,0,0,1,68.84424,20.84424l27.17847,18.11889c-4.64747,4.489-6.814,8.99317-7.62085,13.02369L103.063,339.09424A113.32843,113.32843,0,0,0,40,320Z"/><path d="M456.46436,367.208a24.31172,24.31172,0,0,0-18.81885-2.49463l-56.17725,15.32129a24.65847,24.65847,0,0,0-18.02661,23.23315L320.794,415.45288l-29.21631-14.60815a7.99929,7.99929,0,0,0-5.51807-.606l-64,16a8.00031,8.00031,0,0,0-5.752,9.959l16,56a7.99982,7.99982,0,0,0,10.22217,5.39161l72-24a8.00044,8.00044,0,0,0,5.23144-5.64893l6.87939-27.51746,41.76709-11.93347a24.424,24.424,0,0,0,25.94678,8.79712l56.17725-15.32129a24.62388,24.62388,0,0,0,17.31445-29.56494A24.30186,24.30186,0,0,0,456.46436,367.208ZM305.3042,449.79932,245.397,469.76855l-11.43261-40.01367,53.105-13.27588,23.61328,11.80664Zm141.01807-53.27051L390.14453,411.8501a8.48782,8.48782,0,0,1-10.46826-6.13037v-.00049a8.53486,8.53486,0,0,1,6.00146-10.24805l56.17774-15.32129a8.53946,8.53946,0,0,1,2.24951-.30371,8.50056,8.50056,0,0,1,8.21875,6.43457A8.53486,8.53486,0,0,1,446.32227,396.52881Z"/><path d="M472,240a228.71109,228.71109,0,0,0-80.26318,14.55078l-2.36988.89q-6.98107-4.61079-18.49975-8.0741C355.03223,242.61621,334.126,240,312,240s-43.03223,2.61621-58.86719,7.3667C233.80176,253.166,224,261.4541,224,272a16.38579,16.38579,0,0,0,.14941,2.18152l2.95411,38.43176,15.95312-1.22656-1.46179-19.01831a89.44471,89.44471,0,0,0,11.538,4.26489C268.96777,301.38379,289.874,304,312,304s43.03223-2.61621,58.86719-7.3667a89.40771,89.40771,0,0,0,11.54394-4.26782l-2.40722,31.31909A48.2307,48.2307,0,0,1,332.14014,368H328v16h4.14014a64.00985,64.00985,0,0,0,63.8164-59.08789L397.5293,304.47l15.32031-5.7395A167.86992,167.86992,0,0,1,472,288a24,24,0,0,0,0-48ZM312,288c-46.38184,0-70.36035-11.47266-71.97412-16,1.61377-4.52734,25.59228-16,71.97412-16s70.36035,11.47266,71.97412,16C382.36035,276.52734,358.38184,288,312,288Zm165.67236-18.34668A7.98512,7.98512,0,0,1,472,272a183.80908,183.80908,0,0,0-64.7666,11.74854l-8.35059,3.12817.98621-12.81812A16.42884,16.42884,0,0,0,400,272a16.16923,16.16923,0,0,0-.34241-3.30127A212.22607,212.22607,0,0,1,472,256a8.00851,8.00851,0,0,1,5.67236,13.65332Z"/><path d="M400,240V112a16.01833,16.01833,0,0,0-16-16H272a16.01833,16.01833,0,0,0-16,16H384V240Z"/><path d="M344,88a7.99977,7.99977,0,0,0,8-8V72a24,24,0,0,0-48,0v8a7.99977,7.99977,0,0,0,8,8ZM328,64a7.978,7.978,0,0,1,8,8H320A8.00917,8.00917,0,0,1,328,64Z"/><path d="M272,88h16a7.99977,7.99977,0,0,0,8-8V72a32,32,0,0,1,64,0v8a7.99977,7.99977,0,0,0,8,8h16a24.0275,24.0275,0,0,1,24,24V224h16V112a40.04521,40.04521,0,0,0-40-40h-8a48,48,0,0,0-96,0h-8a39.97893,39.97893,0,0,0-38.73926,30.00586l15.49512,3.98828A23.98271,23.98271,0,0,1,272,88Z"/></g></svg>
